<mxfile host="app.diagrams.net" modified="2023-08-09T11:56:36.420Z" agent="Mozilla/5.0 (Macintosh; Intel Mac OS X 10_15_7) AppleWebKit/605.1.15 (KHTML, like Gecko) Version/16.6 Safari/605.1.15" version="21.6.7" etag="-CN5DCa5vfl8x3KQ44Fq" type="github">
  <diagram name="Page-1" id="ztwrWcg1-Bn-78RH0DZr">
    <mxGraphModel>
      <root>
        <mxCell id="0" />
        <mxCell id="1" parent="0" />
      </root>
    </mxGraphModel>
  </diagram>
</mxfile>
